# xmcd
#
# Track frame offsets:
#	150
#	21224
#	39501
#	60207
#	76679
#	94332
#	112851
#	127676
#	149975
#	173463
#	189126
#	204052
#	228544
#	243502
#
# Disc length: 3470 seconds
#
# Revision: 1
# Processed by: cddbd v1.5.2PL0 Copyright (c) Steve Scherf et al.
# Submitted via: audiograbber 1.83.01
#
DISCID=a30d8c0e
DTITLE=The Blues Band - Few Short Lines
DYEAR=2011
DGENRE=Blues
TTITLE0=Few Short Lines
TTITLE1=My Brother Was A Sailor 
TTITLE2=Sway With Me
TTITLE3=You Are True
TTITLE4=Living With The Blues
TTITLE5=I Believe I´m In Love With You 
TTITLE6=Pay It No Mind
TTITLE7=Statesboro Blues
TTITLE8=Suddenly I Like It 
TTITLE9=My Toot Toot 
TTITLE10=That´s My Way 
TTITLE11=Road
TTITLE12=It Take Love
TTITLE13=You Can Dance To The Blues
EXTD=
EXTT0=
EXTT1=
EXTT2=
EXTT3=
EXTT4=
EXTT5=
EXTT6=
EXTT7=
EXTT8=
EXTT9=
EXTT10=
EXTT11=
EXTT12=
EXTT13=
PLAYORDER=
